<?xml version="1.0" standalone="no"?>
<!DOCTYPE svg PUBLIC "-//W3C//DTD SVG 20010904//EN"
 "http://www.w3.org/TR/2001/REC-SVG-20010904/DTD/svg10.dtd">
<svg version="1.0" xmlns="http://www.w3.org/2000/svg"
 width="256.000000pt" height="256.000000pt" viewBox="0 0 256.000000 256.000000"
 preserveAspectRatio="xMidYMid meet">

<g transform="translate(0.000000,256.000000) scale(0.100000,-0.100000)"
fill="#000000" stroke="none">
<path d="M910 2425 l0 -135 -25 0 c-20 0 -25 -5 -25 -25 l0 -25 -270 0 -270 0
0 -270 0 -270 -25 0 c-20 0 -25 -5 -25 -25 l0 -25 -135 0 -135 0 0 -295 0
-295 80 0 80 0 0 -80 0 -80 55 0 c52 0 55 -1 55 -25 0 -20 5 -25 25 -25 l25 0
0 -185 0 -185 55 0 55 0 0 -80 0 -80 240 0 240 0 0 -80 0 -80 80 0 80 0 0 -80
0 -80 295 0 295 0 0 160 0 160 290 0 290 0 0 290 0 290 160 0 160 0 0 295 0
295 -80 0 -80 0 0 80 0 80 -745 0 -745 0 0 -295 0 -295 80 0 80 0 0 -80 0 -80
295 0 295 0 0 160 0 160 50 0 c47 0 50 -2 50 -25 0 -21 5 -25 30 -25 l30 0 0
-215 0 -215 -535 0 -535 0 0 535 0 535 745 0 745 0 0 160 0 160 -80 0 -80 0 0
55 0 55 -185 0 -185 0 0 25 c0 20 -5 25 -25 25 -24 0 -25 3 -25 55 l0 55 -80
0 -80 0 0 80 0 80 -295 0 -295 0 0 -135z"/>
</g>
</svg>
